<?xml version="1.0" encoding="utf-8"?>
<!-- Generator: Adobe Illustrator 16.0.0, SVG Export Plug-In . SVG Version: 6.00 Build 0)  -->
<!DOCTYPE svg PUBLIC "-//W3C//DTD SVG 1.1//EN" "http://www.w3.org/Graphics/SVG/1.1/DTD/svg11.dtd">
<svg version="1.1" xmlns="http://www.w3.org/2000/svg" xmlns:xlink="http://www.w3.org/1999/xlink" x="0px" y="0px" width="200px"
	 height="200px" viewBox="0 0 200 200" enable-background="new 0 0 200 200" xml:space="preserve">
<g id="Layer_1" display="none">
	
		<image display="inline" overflow="visible" width="7677" height="3543" xlink:href="\\HANS\allusers\docs portfolio\basel\pers-ext.jpg"  transform="matrix(0.0302 0 0 0.0302 -32.1406 46.5928)">
	</image>
</g>
<g id="Layer_2">
	<g>
		<path d="M168.091,73.219l-21.926-3.747l-66.302-11.33L33.166,83.41l-6.379,9.495L7.089,91.497l-5.255,3.436v19.812h2.021v0.005
			l76.449-2.249l53.331,2.249v-0.005h19.609l46.09-1.424V78.558L168.091,73.219z M15.782,109.285l-8.693,1.012v-3.842l10.327,0.398
			L15.782,109.285z M40.646,105.849l-16.374,2.022V99.38l16.374-3.841V105.849z M106.749,97.561l-27.088-1.213l-6.065,1.213V72.696
			l6.469-2.83l26.684,3.638V97.561z M146.165,105.445V70.637l21.732,3.714L168,106.455L146.165,105.445z"/>
		<path d="M133.593,116.749l-53.301-2.25L3.884,116.75l0,0l-0.029,6.459v0.379v3.529l28.2,12.334l13.949-3.461l19.103,5.867
			l68.226-2.406l0.293-11.922h0.01 M130.963,137.107l-65.534,2.311l-18.714-5.746l-0.643-0.197l-0.653,0.162l-13.148,3.262
			l-18.01-7.877l4.18,1.313l0.686,0.217l0.692-0.193l16.764-4.668l28.123,4.725l0.214,0.035l0.218-0.002l66.01-0.871
			L130.963,137.107z"/>
	</g>
</g>
</svg>
