<?xml version="1.0" encoding="utf-8"?>
<!-- Generator: Adobe Illustrator 16.0.0, SVG Export Plug-In . SVG Version: 6.00 Build 0)  -->
<!DOCTYPE svg PUBLIC "-//W3C//DTD SVG 1.1//EN" "http://www.w3.org/Graphics/SVG/1.1/DTD/svg11.dtd">
<svg version="1.1" xmlns="http://www.w3.org/2000/svg" xmlns:xlink="http://www.w3.org/1999/xlink" x="0px" y="0px" width="200px"
	 height="200px" viewBox="0 0 200 200" enable-background="new 0 0 200 200" xml:space="preserve">
<g id="Layer_1" display="none">
	
		<image display="inline" overflow="visible" width="6378" height="2953" xlink:href="\\HANS\allusers\docs portfolio\bigness\axos.jpg"  transform="matrix(0.068 0 0 0.068 -63.3179 -1.3594)">
	</image>
</g>
<g id="Layer_2">
	<g>
		<polygon points="111.852,65.029 115.385,66.292 122.084,64.563 122.084,80 124.902,79.015 124.902,75.416 130.105,73.811 
			130.105,63.449 125.467,62.191 125.467,53.91 130.293,52.652 130.293,45.759 125.77,44.805 125.813,39.949 120.35,38.489 
			115.262,40.108 115.262,42.883 111.852,44.162 		"/>
		<polygon points="111.852,132.256 128.154,125.438 128.154,99.52 111.852,105.15 		"/>
		<polygon points="85.672,117.107 82.381,118.496 76.222,116.027 76.222,146.126 99.918,157.107 109.076,153.354 109.076,91.551 
			114.881,94.337 119.309,92.774 119.309,68.145 115.254,69.191 109.076,66.985 109.076,13.131 94.219,9.583 84.543,11.801 		"/>
		<polygon points="111.852,95.961 111.852,102.215 129.801,96.015 129.801,87.382 122.084,84.846 122.084,94.737 114.719,97.337 		
			"/>
		<polygon points="111.852,155.216 110.148,155.913 110.148,165.927 126.723,157.739 118.73,154.343 118.961,152.262 
			127.98,147.638 127.98,129.368 127.145,128.868 111.852,135.264 		"/>
		<polygon points="88.287,154.775 76.61,149.363 76.61,174.924 88.287,179.942 		"/>
		<polygon points="107.373,170.393 107.373,157.05 99.851,160.134 91.062,156.062 91.062,186.467 99.999,190.417 123.818,177.93 
			123.818,166.368 127.98,164.055 127.98,160.214 		"/>
		<polygon points="73.89,112.104 82.354,115.497 82.878,115.276 82.346,65.654 73.89,68.5 		"/>
		<polygon points="73.447,116.465 70.517,117.575 70.517,123.701 73.447,124.97 		"/>
		<polygon points="71.115,93.769 69.707,94.219 69.707,100.578 71.115,101.197 		"/>
	</g>
</g>
</svg>
