<?xml version="1.0" encoding="utf-8"?>
<!-- Generator: Adobe Illustrator 16.0.0, SVG Export Plug-In . SVG Version: 6.00 Build 0)  -->
<!DOCTYPE svg PUBLIC "-//W3C//DTD SVG 1.1//EN" "http://www.w3.org/Graphics/SVG/1.1/DTD/svg11.dtd">
<svg version="1.1" xmlns="http://www.w3.org/2000/svg" xmlns:xlink="http://www.w3.org/1999/xlink" x="0px" y="0px" width="200px"
	 height="200px" viewBox="0 0 200 200" enable-background="new 0 0 200 200" xml:space="preserve">
<g id="Layer_1" display="none">
	
		<image display="inline" overflow="visible" width="1200" height="650" xlink:href="BEEFFD29.jpg"  transform="matrix(0.22 0 0 0.22 -32 28.5)">
	</image>
</g>
<g id="Layer_2">
	<g>
		<polygon points="77.726,102.251 190,114.318 190,113.359 165.375,110.317 165.375,109.061 156.309,107.801 156.563,106.03 
			126.385,100.51 120.758,101.761 113.584,100.407 113.832,97.802 40.49,87.254 25.61,88.799 19.019,87.882 5.5,90.779 5.5,97.928 
			54.266,103.373 		"/>
		<path d="M69.833,137.208c-3.054,0.243-18.698,1.493-38.125,3.124c-19.455,1.634-32.424,3.554-34.875,3.93v3.839
			c2.19-0.275,4.986-0.633,8.152-1.038c12.579-1.61,31.588-4.044,40.895-4.883c11.447-1.031,21.675-1.677,23.953-1.816V137.208z"/>
		<polygon points="70.833,136.126 70.833,136.797 70.833,141.306 70.833,147.259 94.667,143.899 94.667,125.986 91.444,125.9 
			70.833,125.574 		"/>
		<polygon points="141.219,132.981 168.307,132.073 168.605,132.063 168.605,132.063 194.834,131.184 194.834,123.792 191,123.464 
			191,123.471 190.439,123.416 170.01,121.67 141.063,125.33 108.834,126.154 108.834,132.343 115.837,132.487 		"/>
		<path d="M168.032,135.336l-0.159-0.573l0.082-0.005l-0.221-1.664L142.183,134l-26.353-0.513v6.365
			c9.233,0.349,25.982,0.977,26.499,0.981c0.616-0.023,17.04-1.583,26.107-2.448L168.032,135.336z"/>
		<polygon points="30.518,115.822 55.739,115.25 68.851,115.851 68.726,113.123 97.771,114.375 111.555,115.878 116.875,115.875 
			190,119.599 190,116.461 143.209,112.623 75.089,107.666 54,107.667 54,107.167 52.76,107.641 30.816,107.178 		"/>
		<polygon points="143.286,111.626 190,115.457 190,115.324 77.697,103.247 54.715,104.354 54.54,106.667 75.125,106.667 		"/>
		<polygon points="142.15,124.187 161.222,121.446 69.397,116.876 55.727,116.249 30.483,116.823 30.483,116.841 6.333,116.507 
			6.333,123.344 55.677,124.334 58.18,124.374 58.165,124.32 70.283,124.565 108.331,125.167 		"/>
		<polygon points="190,120.6 116.85,116.874 111.5,116.875 97.696,115.372 69.774,114.17 69.854,115.898 165.691,120.668 
			165.685,120.805 168.988,120.33 190,122.369 		"/>
		<polygon points="69.833,135.871 69.833,125.557 59.502,125.348 62.701,136.426 		"/>
		<path d="M169.375,136.437c1.529-0.091,7.461-0.353,31.125-1.251v-1.158l-31.33,1.667L169.375,136.437z"/>
		<path fill="#FFFFFF" d="M168.956,134.705l-0.219-1.646l27.097-0.908v-9.276L191,122.461v-1.81v-5.112v-0.107v-1.006v-1.951
			l-24.625-3.042v-1.243l-8.934-1.24l0.246-1.729l-31.223-5.711l-0.1-0.019l-5.623,1.25l-6.076-1.146l0.252-2.646L40.571,86.255
			l-0.062-0.009l-14.882,1.546l-6.646-0.924L4.5,89.971v8.852l49.215,5.489l-0.178,2.346l-23.687-0.501l-0.333,9.671l-24.184-0.334
			v8.831l50.326,1.01l2.811,0.045l3.313,11.473c-7.032,0.568-17.831,1.449-30.159,2.484c-21.602,1.813-35.235,3.982-35.37,4.004
			l-0.421,0.068v5.825l0.562-0.07c2.265-0.283,5.272-0.668,8.717-1.109c12.571-1.609,31.569-4.041,40.858-4.878
			c11.34-1.021,21.479-1.664,23.863-1.811v7.044l25.833-3.641v-18.802l12.167,0.192v7.164l6.996,0.145v7.348l0.481,0.019
			c1.082,0.04,26.518,1,27.021,1c0.509,0,24.034-2.246,26.715-2.502l0.516-0.05l-0.245-1.851c2.421-0.141,21.477-0.877,31.7-1.265
			l0.481-0.019v-3.176L168.956,134.705z M200.5,135.186c-23.664,0.898-29.596,1.16-31.125,1.251l-0.205-0.742l31.33-1.667V135.186z
			 M115.83,139.853v-6.365L142.183,134l25.552-0.906l0.221,1.664l-0.082,0.005l0.159,0.573l0.404,3.05
			c-9.067,0.865-25.491,2.425-26.107,2.448C141.813,140.829,125.063,140.201,115.83,139.853z M70.283,124.565l-12.119-0.245
			l0.015,0.054l-2.502-0.04l-49.344-0.99v-6.837l24.149,0.334l0-0.018l25.244-0.574l13.67,0.627l91.825,4.57l-19.071,2.74
			l-33.819,0.98L70.283,124.565z M94.667,125.986v17.913l-23.833,3.359v-5.953v-4.509v-0.671v-10.552l20.611,0.326L94.667,125.986z
			 M4.985,147.063c-3.166,0.405-5.962,0.763-8.152,1.038v-3.839c2.451-0.376,15.42-2.296,34.875-3.93
			c19.427-1.631,35.071-2.881,38.125-3.124v3.155c-2.278,0.14-12.506,0.785-23.953,1.816
			C36.573,143.019,17.564,145.452,4.985,147.063z M59.502,125.348l10.331,0.209v10.314l-7.133,0.555L59.502,125.348z M54,107.167
			v0.5l21.089-0.001l68.12,4.957L190,116.461v3.138l-73.125-3.724l-5.32,0.003l-13.783-1.503l-29.046-1.252l0.125,2.728
			l-13.112-0.601l-25.221,0.572l0.298-8.645l21.943,0.463L54,107.167z M5.5,90.779l13.519-2.897l6.591,0.917l14.88-1.545
			l73.342,10.548l-0.248,2.604l7.174,1.354l5.627-1.25l30.178,5.52l-0.254,1.771l9.066,1.26v1.257L190,113.359v0.959L77.726,102.251
			l-23.46,1.122L5.5,97.928V90.779z M54.715,104.354l22.981-1.106L190,115.324v0.133l-46.714-3.831l-68.161-4.959H54.54
			L54.715,104.354z M168.988,120.33l-3.304,0.475l0.007-0.137l-95.838-4.77l-0.079-1.729l27.921,1.202l13.804,1.503l5.35-0.001
			L190,120.6v1.77L168.988,120.33z M108.834,126.154l32.229-0.824l28.947-3.66l20.43,1.746l0.561,0.055v-0.007l3.834,0.328v7.392
			l-26.229,0.88v-0.001l-0.299,0.011l-27.088,0.908l-25.382-0.494l-7.003-0.145V126.154z"/>
	</g>
</g>
</svg>
