<?xml version="1.0" encoding="utf-8"?>
<!-- Generator: Adobe Illustrator 16.0.0, SVG Export Plug-In . SVG Version: 6.00 Build 0)  -->
<!DOCTYPE svg PUBLIC "-//W3C//DTD SVG 1.1//EN" "http://www.w3.org/Graphics/SVG/1.1/DTD/svg11.dtd">
<svg version="1.1" xmlns="http://www.w3.org/2000/svg" xmlns:xlink="http://www.w3.org/1999/xlink" x="0px" y="0px" width="200px"
	 height="200px" viewBox="0 0 200 200" enable-background="new 0 0 200 200" xml:space="preserve">
<g id="Layer_1" display="none">
	
		<image display="inline" overflow="visible" width="7677" height="3543" xlink:href="\\HANS\allusers\docs portfolio\roma\persext.jpg"  transform="matrix(0.0379 0 0 0.0379 -69.9492 45.0005)">
	</image>
</g>
<g id="Layer_2">
	<g>
		<path d="M120.109,95.635l59.395,3.416l9.745,3.061l-26.438-17.89L76.468,69.904l-33.995,7.329v22.5l45.879,3.342L120.109,95.635z
			 M73.836,94.278l-29.489,3.579V80.131l29.489-5.455V94.278z"/>
		<polygon points="28.155,117.179 28.155,108.768 1.564,108.768 1.564,118.824 4.803,120.685 13.191,120.685 		"/>
		<polygon points="179.012,101.041 120.287,97.695 30.2,118.8 16.106,122.103 123.097,123.085 123.268,113.54 178.323,112.517 
			178.153,122.403 180.539,123.085 198.437,120.698 198.437,107.14 		"/>
		<polygon points="30.2,107.558 30.2,116.699 72.265,106.845 		"/>
	</g>
</g>
</svg>
