<?xml version="1.0" encoding="UTF-8" standalone="no"?>
<!-- Generated by IcoMoon.io -->

<svg
   xmlns:dc="http://purl.org/dc/elements/1.1/"
   xmlns:cc="http://creativecommons.org/ns#"
   xmlns:rdf="http://www.w3.org/1999/02/22-rdf-syntax-ns#"
   xmlns:svg="http://www.w3.org/2000/svg"
   xmlns="http://www.w3.org/2000/svg"
   xmlns:sodipodi="http://sodipodi.sourceforge.net/DTD/sodipodi-0.dtd"
   xmlns:inkscape="http://www.inkscape.org/namespaces/inkscape"
   version="1.1"
   width="384"
   height="448"
   viewBox="0 0 384 448"
   id="svg2"
   inkscape:version="0.48.5 r10040"
   sodipodi:docname="sliders.svg">
  <metadata
     id="metadata11">
    <rdf:RDF>
      <cc:Work
         rdf:about="">
        <dc:format>image/svg+xml</dc:format>
        <dc:type
           rdf:resource="http://purl.org/dc/dcmitype/StillImage" />
      </cc:Work>
    </rdf:RDF>
  </metadata>
  <defs
     id="defs9" />
  <sodipodi:namedview
     pagecolor="#ffffff"
     bordercolor="#666666"
     borderopacity="1"
     objecttolerance="10"
     gridtolerance="10"
     guidetolerance="10"
     inkscape:pageopacity="0"
     inkscape:pageshadow="2"
     inkscape:window-width="1920"
     inkscape:window-height="972"
     id="namedview7"
     showgrid="false"
     inkscape:zoom="0.52678571"
     inkscape:cx="195.79661"
     inkscape:cy="72.135593"
     inkscape:window-x="0"
     inkscape:window-y="34"
     inkscape:window-maximized="1"
     inkscape:current-layer="svg2" />
  <g
     id="icomoon-ignore" />
  <path
     d="m 127.2604,309.71957 v 19.91987 H 72.480739 V 309.71957 H 127.2604 z m 54.77967,-19.91988 q 4.04621,0 7.00307,2.95686 Q 192,295.71341 192,299.75963 v 39.83976 q 0,4.04622 -2.95686,7.00307 -2.95686,2.95686 -7.00307,2.95686 h -39.83976 q -4.04623,0 -7.00309,-2.95686 -2.95685,-2.95685 -2.95685,-7.00307 v -39.83976 q 0,-4.04622 2.95685,-7.00308 2.95686,-2.95686 7.00309,-2.95686 h 39.83976 z m 24.89984,-59.75963 v 19.91988 H 72.480739 V 230.04006 H 206.93991 z m -99.59939,-79.6795 v 19.91987 H 72.480739 v -19.91987 h 34.859781 z m 204.17874,159.35901 v 19.91987 H 196.97997 V 309.71957 H 311.51926 z M 162.12019,130.44068 q 4.04622,0 7.00307,2.95686 2.95686,2.95685 2.95686,7.00307 v 39.83976 q 0,4.04622 -2.95686,7.00308 -2.95685,2.95686 -7.00307,2.95686 h -39.83976 q -4.04623,0 -7.00308,-2.95686 -2.95686,-2.95686 -2.95686,-7.00308 v -39.83976 q 0,-4.04622 2.95686,-7.00307 2.95685,-2.95686 7.00308,-2.95686 h 39.83976 z m 99.59938,79.67951 q 4.04623,0 7.00308,2.95685 2.95686,2.95685 2.95686,7.00308 v 39.83976 q 0,4.04623 -2.95686,7.00308 -2.95685,2.95685 -7.00308,2.95685 h -39.83976 q -4.04622,0 -7.00307,-2.95685 -2.95686,-2.95685 -2.95686,-7.00308 v -39.83976 q 0,-4.04623 2.95686,-7.00308 2.95685,-2.95685 7.00307,-2.95685 h 39.83976 z m 49.79969,19.91987 v 19.91988 h -34.85979 v -19.91988 h 34.85979 z m 0,-79.6795 v 19.91987 H 177.06009 v -19.91987 h 134.45917 z"
     id="path5"
     inkscape:connector-curvature="0" />
</svg>
